<svg xmlns="http://www.w3.org/2000/svg" viewBox="0 0 1834.00 963.00" role="img" aria-labelledby="title">
  <title id="title">piccie</title>
  <g fill="#8f201c" transform="translate(12.00 734.00) scale(1 -1)">
    <path d="M27 -205Q12 -205 12 -194Q12 -183 25 -182L39 -180Q60 -177 66.5 -168.0Q73 -159 73 -138V403Q73 421 67.5 427.5Q62 434 48 436L27 439Q14 440 14 450Q14 458 30 461Q61 466 77.5 477.0Q94 488 112 504Q121 513 127 513Q136 513 136 501V470Q136 463 142.0 460.5Q148 458 156 466L167 477Q187 497 208.0 506.5Q229 516 256 516Q302 516 337.5 485.5Q373 455 393.5 401.0Q414 347 414 274Q414 191 388.0 127.0Q362 63 316.5 27.0Q271 -9 212 -9Q182 -9 159 2Q141 10 141 -9V-138Q141 -159 147.5 -166.5Q154 -174 175 -177L212 -182Q223 -184 223 -193Q223 -205 208 -205ZM215 16Q271 16 305.5 82.0Q340 148 340 260Q340 363 310.0 417.0Q280 471 225 471Q191 471 166.0 443.0Q141 415 141 365V113Q141 68 161.5 42.0Q182 16 215 16Z" transform="translate(0 0)"/><path d="M114 605Q93 605 78.5 620.0Q64 635 64 658Q64 681 78.5 695.5Q93 710 114 710Q135 710 149.0 695.5Q163 681 163 658Q163 635 149.0 620.0Q135 605 114 605ZM30 0Q15 0 15 11Q15 20 28 23L40 25Q65 29 72.0 37.5Q79 46 79 67V403Q79 421 73.5 427.5Q68 434 54 436L33 439Q20 440 20 450Q20 458 36 461Q67 466 86.0 477.0Q105 488 123 504Q132 513 138 513Q147 513 147 501V67Q147 46 153.0 37.0Q159 28 176 26L201 23Q212 21 212 12Q212 0 197 0Z" transform="translate(424 0)"/><path d="M180 -9Q136 -9 100.5 20.5Q65 50 44.0 105.0Q23 160 23 236Q23 321 48.5 384.0Q74 447 118.0 481.5Q162 516 216 516Q262 516 288 498Q298 491 298 476L300 354Q300 339 288 339Q277 339 274 352Q260 407 247.0 437.0Q234 467 220.0 478.5Q206 490 189 490Q169 490 147.5 467.0Q126 444 111.5 392.5Q97 341 97 257Q97 150 124.5 96.0Q152 42 196 42Q231 42 254.5 71.0Q278 100 295 176Q298 187 307 187Q319 187 316 167Q305 97 285.5 58.5Q266 20 239.5 5.5Q213 -9 180 -9Z" transform="translate(627 0)"/><path d="M180 -9Q136 -9 100.5 20.5Q65 50 44.0 105.0Q23 160 23 236Q23 321 48.5 384.0Q74 447 118.0 481.5Q162 516 216 516Q262 516 288 498Q298 491 298 476L300 354Q300 339 288 339Q277 339 274 352Q260 407 247.0 437.0Q234 467 220.0 478.5Q206 490 189 490Q169 490 147.5 467.0Q126 444 111.5 392.5Q97 341 97 257Q97 150 124.5 96.0Q152 42 196 42Q231 42 254.5 71.0Q278 100 295 176Q298 187 307 187Q319 187 316 167Q305 97 285.5 58.5Q266 20 239.5 5.5Q213 -9 180 -9Z" transform="translate(946 0)"/><path d="M114 605Q93 605 78.5 620.0Q64 635 64 658Q64 681 78.5 695.5Q93 710 114 710Q135 710 149.0 695.5Q163 681 163 658Q163 635 149.0 620.0Q135 605 114 605ZM30 0Q15 0 15 11Q15 20 28 23L40 25Q65 29 72.0 37.5Q79 46 79 67V403Q79 421 73.5 427.5Q68 434 54 436L33 439Q20 440 20 450Q20 458 36 461Q67 466 86.0 477.0Q105 488 123 504Q132 513 138 513Q147 513 147 501V67Q147 46 153.0 37.0Q159 28 176 26L201 23Q212 21 212 12Q212 0 197 0Z" transform="translate(1265 0)"/><path d="M192 -9Q144 -9 106.0 23.0Q68 55 45.5 113.5Q23 172 23 249Q23 328 46.0 388.0Q69 448 109.0 482.0Q149 516 198 516Q257 516 293.5 467.5Q330 419 330 310Q330 277 305 277H115Q95 277 95 254Q95 148 126.0 95.0Q157 42 205 42Q243 42 267.0 69.0Q291 96 306 160Q309 171 319 171Q331 171 328 151Q312 62 277.0 26.5Q242 -9 192 -9ZM112 302H213Q261 302 261 352Q261 417 245.0 454.0Q229 491 197 491Q158 491 131.5 446.0Q105 401 97 318Q95 302 112 302Z" transform="translate(1468 0)"/>
  </g>
</svg>
